<svg width="360" height="355" viewBox="0 0 360 355" fill="none" xmlns="http://www.w3.org/2000/svg">
<path d="M134.982 170.614C135.359 170.476 135.786 170.58 136.057 170.876L138.97 174.054C139.571 174.708 139.086 175.922 138.219 176.113C136.007 176.6 132.451 177.883 128.434 181.249C124.631 184.435 122.979 187.409 122.261 189.392C121.953 190.244 120.601 190.666 119.981 190.004L117.512 187.368C117.236 187.073 117.164 186.639 117.334 186.273C121.227 177.853 125.144 174.202 134.982 170.614Z" fill="#57F4FF"/>
<circle cx="242" cy="169" r="10" fill="#00FF26"/>
<circle cx="114.5" cy="149.5" r="4.5" fill="white"/>
<circle cx="251.5" cy="102.5" r="4.5" fill="white"/>
<ellipse cx="152.5" cy="19.7789" rx="4.5" ry="4.34171" fill="white"/>
<ellipse cx="171.5" cy="29.4271" rx="4.5" ry="4.34171" fill="white"/>
<ellipse cx="286.5" cy="72.8442" rx="4.5" ry="4.34171" fill="white"/>
<ellipse cx="58.5" cy="177.045" rx="4.5" ry="4.34171" fill="white"/>
<ellipse cx="67.5" cy="256.161" rx="4.5" ry="4.34171" fill="white"/>
<ellipse cx="68.5" cy="107.578" rx="4.5" ry="4.34171" fill="white"/>
<ellipse cx="60.5" cy="57.407" rx="4.5" ry="4.34171" fill="white"/>
<ellipse cx="36.5" cy="57.407" rx="4.5" ry="4.34171" fill="white"/>
<path d="M222.971 28.5757C223.355 28.4405 223.79 28.5435 224.067 28.8353L226.943 31.8622C227.554 32.5055 227.065 33.6964 226.185 33.8854C223.971 34.3607 220.431 35.6019 216.434 38.8328C212.652 41.8897 210.998 44.7442 210.274 46.6567C209.958 47.4911 208.583 47.9011 207.952 47.2507L205.522 44.7472C205.24 44.4569 205.166 44.0293 205.339 43.6696C209.229 35.557 213.145 32.0356 222.971 28.5757Z" fill="#57F4FF"/>
<ellipse cx="55" cy="74.2915" rx="10" ry="9.64824" fill="#DB3BFF"/>
<circle cx="261.5" cy="82.5" r="4.5" fill="#00FF26"/>
<circle cx="290.5" cy="96.5" r="4.5" fill="#FFFB00"/>
<circle cx="283.5" cy="113.5" r="4.5" fill="white"/>
<circle cx="257.5" cy="157.5" r="4.5" fill="white"/>
<circle cx="219.5" cy="205.5" r="4.5" fill="white"/>
<circle cx="263.5" cy="179.5" r="4.5" fill="white"/>
<circle cx="283.5" cy="222.5" r="4.5" fill="#4D7FFF"/>
<circle cx="303.5" cy="227.5" r="4.5" fill="#57F4FF"/>
<circle cx="93.5" cy="187.5" r="4.5" fill="#4D7FFF"/>
<circle cx="58.5" cy="246.5" r="4.5" fill="#4D7FFF"/>
<circle cx="298.5" cy="236.5" r="4.5" fill="#00FF26"/>
<path d="M268.102 108.196C267.858 108.514 267.446 108.661 267.059 108.568L262.925 107.577C262.054 107.369 261.8 106.073 262.434 105.431C264.004 103.843 266.212 100.933 267.678 96.1617C269.061 91.6577 268.831 88.4224 268.352 86.4351C268.139 85.5526 269.06 84.4255 269.952 84.6295L273.409 85.4202C273.798 85.5092 274.094 85.8225 274.156 86.214C275.56 95.0509 274.312 100.074 268.102 108.196Z" fill="#57F4FF"/>
<path d="M305.831 60.8788C305.566 60.5791 305.516 60.1464 305.705 59.7895L307.641 56.1355C308.055 55.3554 309.365 55.3691 309.85 56.0941C311.078 57.93 313.519 60.7134 318.074 63.2134C322.388 65.5814 325.753 66.074 327.861 66.0554C328.773 66.0474 329.627 67.1383 329.214 67.939L327.629 71.01C327.443 71.371 327.05 71.5903 326.64 71.5597C317.404 70.8711 312.618 68.5573 305.831 60.8788Z" fill="#DB3BFF"/>
<path d="M139.679 26.319C139.87 25.9691 140.254 25.7638 140.65 25.7992L144.891 26.1781C145.784 26.2579 146.237 27.5071 145.709 28.2351C144.405 30.0343 142.68 33.2303 141.977 38.1542C141.313 42.8009 142.043 45.9633 142.825 47.8593C143.173 48.703 142.438 49.9572 141.525 49.8851L137.985 49.6057C137.588 49.5743 137.247 49.308 137.125 48.93C134.358 40.3976 134.808 35.2506 139.679 26.319Z" fill="#00FF26"/>
<path d="M244.815 34.186C244.59 33.8572 244.594 33.4236 244.825 33.0937L247.209 29.6934C247.717 28.9691 249.023 29.1444 249.415 29.9237C250.405 31.8908 252.477 34.9332 256.672 37.9428C260.643 40.7921 263.913 41.6799 266.008 41.9125C266.919 42.0136 267.639 43.2024 267.129 43.9472L265.168 46.809C264.939 47.1432 264.523 47.3129 264.121 47.2344C255.04 45.4648 250.581 42.6055 244.815 34.186Z" fill="#4D7FFF"/>
<rect x="313.393" y="100.617" width="10" height="50" transform="rotate(16.6949 313.393 100.617)" fill="#FF3B3B"/>
<rect x="18" y="76.1082" width="9" height="48" transform="rotate(-13.547 18 76.1082)" fill="#FF3B3B"/>
<rect x="86.8829" y="27.1393" width="9" height="48" transform="rotate(17.408 86.8829 27.1393)" fill="#4D7FFF"/>
<path d="M85.455 207.201C85.8413 207.311 86.1303 207.645 86.1779 208.044L87.5031 219.154C87.6083 220.035 86.5341 220.699 85.7498 220.283C82.3459 218.477 74.6602 215.442 62.5765 216.339C50.8765 217.207 44.5863 221.208 41.8203 223.592C41.1334 224.184 39.8454 223.786 39.7284 222.887L38.4418 213.002C38.3897 212.602 38.5887 212.206 38.9392 212.005C55.0179 202.814 65.3449 201.473 85.455 207.201Z" fill="#4D7FFF"/>
<path d="M274.283 170.55C274.203 170.157 274.366 169.746 274.698 169.52L283.948 163.225C284.682 162.726 285.766 163.373 285.758 164.261C285.723 168.114 286.571 176.334 292.934 186.645C299.096 196.629 305.545 200.369 308.936 201.725C309.777 202.062 310.017 203.389 309.273 203.907L301.093 209.603C300.761 209.834 300.318 209.84 299.979 209.621C284.413 199.585 278.465 191.038 274.283 170.55Z" fill="#FFFB00"/>
<path d="M17.5615 236.025C17.4803 235.631 17.6443 235.223 17.9764 234.997L23.3398 231.347C24.0739 230.847 25.1846 231.498 25.2166 232.385C25.3186 235.207 26.1438 240.323 30.0136 246.593C33.7164 252.593 37.5744 255.227 39.9693 256.362C40.7887 256.751 41.0191 258.118 40.275 258.636L35.66 261.849C35.3288 262.08 34.8873 262.087 34.5486 261.867C24.3115 255.23 20.3445 249.515 17.5615 236.025Z" fill="#FFFB00"/>
<path d="M318.218 246.842C318.596 246.706 319.025 246.809 319.297 247.105L326.858 255.352C327.458 256.007 326.973 257.173 326.093 257.293C322.275 257.813 314.263 259.835 304.975 267.617C295.982 275.151 293.21 282.071 292.356 285.622C292.144 286.503 290.865 286.932 290.245 286.27L283.431 278.995C283.155 278.7 283.086 278.262 283.253 277.895C290.943 261.047 298.546 253.93 318.218 246.842Z" fill="#FF3B3B"/>
<path d="M91.8146 315.135C92.0525 315.459 92.0763 315.9 91.8695 316.244L86.1113 325.837C85.6543 326.599 84.3987 326.465 84.0337 325.656C82.4497 322.143 78.234 315.036 68.1335 308.343C58.3538 301.862 50.9309 301.171 47.2842 301.361C46.3786 301.408 45.6048 300.304 46.0631 299.522L51.1015 290.921C51.3055 290.573 51.7053 290.382 52.105 290.438C70.4441 293.023 79.4282 298.289 91.8146 315.135Z" fill="#FFFB00"/>
<path d="M111.193 112.459C111.571 112.323 112.001 112.425 112.272 112.722L119.833 120.969C120.433 121.623 119.948 122.789 119.068 122.909C115.25 123.429 107.238 125.451 97.9505 133.233C88.9574 140.768 86.1855 147.688 85.3312 151.238C85.119 152.12 83.8405 152.548 83.2206 151.886L76.4062 144.611C76.1302 144.317 76.0608 143.879 76.2284 143.512C83.9187 126.664 91.521 119.547 111.193 112.459Z" fill="#FFFB00"/>
<circle cx="68.5" cy="167.5" r="4.5" fill="#DB3BFF"/>
<circle cx="91.5" cy="163.5" r="4.5" fill="white"/>
<circle cx="50.5" cy="130.5" r="4.5" fill="#57F4FF"/>
<circle cx="77.5" cy="91.5" r="4.5" fill="#00FF26"/>
<circle cx="93.5" cy="80.5" r="4.5" fill="#FF3B3B"/>
<circle cx="270.5" cy="68.5" r="4.5" fill="#DB3BFF"/>
<circle cx="156.5" cy="34.5" r="4.5" fill="#FFFB00"/>
<circle cx="45.5" cy="309.5" r="4.5" fill="#D9D9D9"/>
</svg>
